<svg preserveAspectRatio="none" overflow="visible" style="display: block;" width="70" height="70" viewBox="0 0 70 70" fill="none" xmlns="http://www.w3.org/2000/svg">
<g id="slot 1">
<path id="Vector" d="M18.5526 3.75V13.6184" stroke="#CCCCCC" stroke-width="3.75" stroke-linecap="round" stroke-linejoin="round"/>
<path id="Vector_2" d="M51.4474 3.75V13.6184" stroke="#CCCCCC" stroke-width="3.75" stroke-linecap="round" stroke-linejoin="round"/>
<path id="Vector_3" d="M53.0921 8.68421H16.9079C9.64099 8.68421 3.75 14.5752 3.75 21.8421V53.0921C3.75 60.359 9.64099 66.25 16.9079 66.25H53.0921C60.359 66.25 66.25 60.359 66.25 53.0921V21.8421C66.25 14.5752 60.359 8.68421 53.0921 8.68421Z" stroke="#CCCCCC" stroke-width="3.75" stroke-linecap="round" stroke-linejoin="round"/>
<path id="Vector_4" d="M5.39474 25.1316H64.6053" stroke="#CCCCCC" stroke-width="3.75" stroke-linecap="round" stroke-linejoin="round"/>
<path id="Vector_5" d="M40.2632 38.2895H29.7368C27.1934 38.2895 25.1316 40.3513 25.1316 42.8947V50.1316C25.1316 52.675 27.1934 54.7368 29.7368 54.7368H40.2632C42.8066 54.7368 44.8684 52.675 44.8684 50.1316V42.8947C44.8684 40.3513 42.8066 38.2895 40.2632 38.2895Z" stroke="#CCCCCC" stroke-width="3.75" stroke-linecap="round" stroke-linejoin="round"/>
</g>
</svg>
